<svg width="15" height="15" viewBox="0 0 15 15" fill="none" xmlns="http://www.w3.org/2000/svg">
    <g clip-path="url(#clip0_256_644)">
        <path d="M5.62484 8.12484C5.86381 8.55337 6.20033 8.91961 6.60716 9.19391C7.01398 9.46821 7.47968 9.64285 7.96655 9.70371C8.45341 9.76457 8.94777 9.70993 9.4096 9.54421C9.87143 9.3785 10.2877 9.10636 10.6248 8.74984L13.1248 6.24984C13.705 5.66968 14.0309 4.88281 14.0309 4.06234C14.0309 3.24187 13.705 2.455 13.1248 1.87484C12.5447 1.29468 11.7578 0.96875 10.9373 0.96875C10.1169 0.96875 9.33 1.29468 8.74984 1.87484L7.49984 3.12484M9.37484 6.87484C9.13587 6.44631 8.79935 6.08007 8.39253 5.80578C7.9857 5.53148 7.52001 5.35683 7.03314 5.29597C6.54627 5.23511 6.05191 5.28975 5.59008 5.45547C5.12826 5.62119 4.71194 5.89332 4.37484 6.24984L1.87484 8.74984C1.29468 9.33 0.96875 10.1169 0.96875 10.9373C0.96875 11.7578 1.29468 12.5447 1.87484 13.1248C2.455 13.705 3.24187 14.0309 4.06234 14.0309C4.88281 14.0309 5.66968 13.705 6.24984 13.1248L7.49984 11.8748" stroke="white" stroke-width="2" stroke-linecap="round" stroke-linejoin="round"/>
    </g>
    <defs>
        <clipPath id="clip0_256_644">
            <rect width="15" height="15" fill="white"/>
        </clipPath>
    </defs>
</svg>
